HIERARCHY
ROOT Hips
{
  OFFSET -17.8222 7.7 127.125
  CHANNELS 6 Xposition Yposition Zposition Zrotation Xrotation Yrotation
  JOINT Spine
  {
    OFFSET 0 0 0
    CHANNELS 3 Zrotation Xrotation Yrotation
    JOINT Spine1
    {
      OFFSET 19 0 0
      CHANNELS 3 Zrotation Xrotation Yrotation
      JOINT Neck
      {
        OFFSET 22.5 0.6 0
        CHANNELS 3 Zrotation Xrotation Yrotation
        JOINT Head
        {
          OFFSET 14 0.0308777 0
          CHANNELS 3 Zrotation Xrotation Yrotation
          End Site
          {
            OFFSET 17 0 0
          }
        }
      }
      JOINT LeftShoulder
      {
        OFFSET 19.8 3.7 4.3
        CHANNELS 3 Zrotation Xrotation Yrotation
        JOINT LeftArm
        {
          OFFSET 8 0 0
          CHANNELS 3 Zrotation Xrotation Yrotation
          JOINT LeftForeArm
          {
            OFFSET 15.2 0 0
            CHANNELS 3 Zrotation Xrotation Yrotation
            JOINT LeftHand
            {
              OFFSET 17.8 0 0
              CHANNELS 3 Zrotation Xrotation Yrotation
              End Site
              {
                OFFSET 7.2 0 0
              }
            }
          }
        }
      }
      JOINT RightShoulder
      {
        OFFSET 19.8 3.7 -4.3
        CHANNELS 3 Zrotation Xrotation Yrotation
        JOINT RightArm
        {
          OFFSET 8 0 0.151654
          CHANNELS 3 Zrotation Xrotation Yrotation
          JOINT RightForeArm
          {
            OFFSET 15.2 0 0
            CHANNELS 3 Zrotation Xrotation Yrotation
            JOINT RightHand
            {
              OFFSET 17.8 0 0
              CHANNELS 3 Zrotation Xrotation Yrotation
              End Site
              {
                OFFSET 7.2 0 0
              }
            }
          }
        }
      }
    }
  }
  JOINT LeftUpLeg
  {
    OFFSET 5.98425 -7.666 4.78879
    CHANNELS 3 Zrotation Xrotation Yrotation
    JOINT LeftLeg
    {
      OFFSET 16 0 0
      CHANNELS 3 Zrotation Xrotation Yrotation
      JOINT LeftFoot
      {
        OFFSET 18 0 0
        CHANNELS 3 Zrotation Xrotation Yrotation
        End Site
        {
          OFFSET 0 -10.8 0
        }
      }
    }
  }
  JOINT RightUpLeg
  {
    OFFSET 5.98425 -7.66598 -4.78879
    CHANNELS 3 Zrotation Xrotation Yrotation
    JOINT RightLeg
    {
      OFFSET 16 0 0
      CHANNELS 3 Zrotation Xrotation Yrotation
      JOINT RightFoot
      {
        OFFSET 18 0 0
        CHANNELS 3 Zrotation Xrotation Yrotation
        End Site
        {
          OFFSET 0 -10.8 0
        }
      }
    }
  }
  JOINT Tail
  {
    OFFSET 6.83696 -0.722574 0
    CHANNELS 3 Zrotation Xrotation Yrotation
    JOINT Tail1
    {
      OFFSET 12 0 0
      CHANNELS 3 Zrotation Xrotation Yrotation
      End Site
      {
        OFFSET 12 0 0
      }
    }
  }
}
MOTION
Frames:	15
Frame Time:	0.0166667
-45.0366 46.5939 208.519 1.39915 -10.214 146.62 -153.771 4.00282 -12.9137 -27.9594 -0.602093 20.175 -32.1977 8.40072 1.2928 -127.647 83.5305 109.484 -107.586 -31.6026 -140.649 115.378 -47.4771 -144.389 -56.2318 11.2215 -3.53195 -10.3506 3.19256 -18.8112 74.3422 -32.9238 47.8734 68.3164 -10.7208 -37.1877 -87.4222 3.91244 -11.867 6.04715 0.571502 -4.20881 -128.005 -5.92245 -28.7448 87.2333 0.0891496 10.0868 46.2607 -1.68256 -4.17807 -127.315 1.79258 2.8707 76.7084 -2.46351 -5.82598 46.9044 0.559443 -1.56474 33.2244 57.0743 -77.3302 5.49147 -55.4149 1.08064 
-44.5707 46.6749 209.091 0.581151 -8.94273 145.693 -153.694 3.94968 -12.0583 -29.0662 -0.334597 18.4245 -33.9049 8.3297 0.402128 -124.149 83.4457 107.241 -107.369 -31.2417 -140.816 113.768 -48.225 -146.507 -56.8252 11.3552 -2.9529 -10.818 3.2661 -18.9898 74.4522 -33.299 48.9882 60.8506 -15.5184 -36.6939 -80.9346 -6.65282 -5.7531 2.57222 1.05364 -6.46813 -127.798 -6.41467 -28.3653 86.3941 0.267034 10.4536 46.8094 -1.77994 -4.29532 -127.771 1.50924 3.70512 76.2186 -3.40089 -6.10681 47.1917 0.753544 -1.38174 24.1395 52.2577 -68.7826 5.60163 -47.5696 -0.297745 
-43.8998 46.7175 209.886 -0.475313 -7.31189 144.221 -153.368 3.82094 -10.7276 -30.8143 0.232075 15.4662 -36.323 8.07551 -0.678484 -119.327 83.2991 104.157 -107.222 -31.0029 -140.92 111.32 -49.7824 -149.843 -57.6093 11.2382 -2.04065 -11.2341 3.48232 -19.7894 74.7242 -33.5154 50.2913 51.1107 -24.0092 -36.3035 -70.3348 -15.2063 2.49355 -0.849048 0.882086 -5.02601 -127.564 -7.10241 -28.0172 85.6782 0.441719 10.8767 47.3261 -1.86713 -4.40336 -128.596 0.75993 3.62624 76.1188 -3.36782 -5.73646 47.447 0.772705 -1.41512 15.5155 45.7025 -60.6095 5.93926 -38.7224 -2.00619 
-43.2305 46.6662 210.657 -1.48335 -5.95154 142.231 -152.587 3.53179 -9.9717 -33.0376 0.850217 12.6326 -38.4134 7.79515 -1.96349 -114.569 82.984 100.961 -107.157 -31.0341 -140.641 108.261 -51.5876 -153.285 -58.5298 11.1289 -1.3137 -11.2301 3.56027 -20.2201 74.9095 -33.574 51.0012 47.4723 -31.2154 -34.3428 -67.3026 -18.5964 4.41423 -6.27607 0.421021 -0.0458709 -127.229 -7.61561 -27.5924 85.4086 0.38733 11.0521 47.6421 -1.85135 -4.39522 -129.387 -0.155191 2.96116 76.2465 -3.34216 -5.0672 47.2192 0.742763 -1.4516 9.00094 39.2534 -54.0085 6.56754 -31.9559 -3.44434 
-42.5572 46.5997 211.384 -2.49223 -4.85547 139.741 -151.385 3.12216 -9.70758 -35.7351 1.49073 10.0576 -39.9534 7.74259 -3.66938 -109.79 82.4982 97.1489 -107.028 -31.1252 -140.014 105.229 -53.4601 -156.701 -59.0492 11.0136 -0.720463 -10.7481 3.42176 -20.0032 74.8541 -33.4553 50.5892 53.3879 -31.8092 -30.9374 -74.6618 -18.6786 0.0518173 -9.34035 0.48844 1.76736 -126.614 -7.87068 -26.8693 85.1146 0.430447 10.8683 48.2336 -1.80665 -4.35994 -129.971 -0.958021 2.46228 76.1123 -4.12413 -4.58231 47.1246 0.844444 -1.32076 4.00996 33.0298 -48.2733 7.4 -26.6383 -4.59462 
-41.8344 46.5311 212.064 -3.5801 -4.06115 137.163 -149.815 2.76497 -9.20649 -39.1363 2.37913 7.19776 -40.6055 7.70585 -5.26631 -105.072 82.115 92.2415 -106.857 -31.0728 -139.59 102.655 -56.2543 -161.05 -59.0285 10.2573 -0.0657274 -8.95441 3.21024 -20.2569 74.783 -32.9018 49.25 58.2541 -33.1285 -30.777 -79.5773 -15.2964 -0.13215 -4.92399 -0.139359 4.16306 -125.854 -7.58605 -25.7536 84.9298 0.552422 10.2337 49.1048 -1.7302 -4.30003 -130.538 -1.71139 1.36081 76.0683 -4.55964 -3.84721 47.3505 0.879641 -1.30007 0.330429 27.0597 -43.3567 8.2551 -22.4162 -5.54729 
-41.0943 46.4273 212.724 -4.90682 -3.41312 134.507 -148.365 2.47599 -8.73679 -42.9431 3.6066 4.17841 -40.5131 7.09186 -6.07573 -101.884 81.8293 88.0381 -106.692 -30.8254 -139.646 100.068 -59.648 -166.169 -58.7883 9.89749 0.20421 -6.01095 2.68005 -19.8534 74.8421 -32.0759 47.7223 61.1235 -34.3353 -32.7806 -81.9167 -16.9917 1.05789 -4.64336 -0.391469 5.17987 -125.475 -7.14192 -24.7426 84.853 0.878705 9.37199 50.5432 -1.68539 -4.26262 -131.118 -2.24226 -0.0869509 75.9575 -4.97704 -3.042 47.3224 0.922211 -1.26916 -2.49914 21.4126 -39.094 9.19297 -19.1128 -6.14756 
-40.4359 46.2417 213.358 -6.29294 -2.77088 131.592 -147.506 1.95974 -9.131 -46.3571 4.69828 1.83981 -40.3943 5.71652 -6.01938 -102.554 80.8821 87.6533 -106.61 -30.6249 -139.857 97.0846 -62.5329 -170.897 -58.8915 9.85684 0.076917 -2.43874 1.88265 -18.2126 75.0705 -31.1789 46.5372 63.089 -34.0693 -34.8501 -82.3715 -20.9622 1.69465 -6.9996 -0.0652134 3.66558 -126.035 -6.68402 -24.4752 85.7885 1.80872 8.5264 52.0141 -1.66467 -4.24282 -131.706 -2.81371 -1.406 75.955 -5.75848 -2.27266 46.9827 1.02623 -1.14948 -4.73162 16.3891 -35.1227 10.0954 -16.4591 -6.4094 
-39.8663 45.9824 213.91 -7.47358 -2.11726 128.775 -147.324 1.21851 -9.99985 -48.884 5.27784 0.35544 -40.4171 4.89341 -5.73815 -105.052 79.9371 90.442 -106.758 -30.8948 -139.693 92.845 -63.1705 -173.973 -59.8793 9.74258 -0.719179 1.23319 1.0883 -15.4393 75.1449 -30.6803 45.6652 64.7206 -35.5389 -36.3028 -82.8379 -21.43 2.78746 -6.1962 -0.197404 3.98546 -127.632 -6.01258 -24.5252 88.7251 3.60135 7.30836 50.4009 -1.54889 -4.05119 -132.254 -3.48139 -1.91483 76.1414 -7.30654 -1.85852 46.6029 1.26574 -0.869426 -6.30703 12.1616 -31.6762 10.8485 -14.3205 -6.41337 
-39.3592 45.736 214.328 -8.23401 -1.95162 126.382 -147.231 0.472845 -10.7701 -50.6039 5.52795 -0.627754 -40.5108 6.11026 -5.7023 -106.391 80.3197 93.0757 -107.191 -31.6507 -139.308 88.6835 -57.5875 -170.895 -61.7582 9.48361 -2.8622 4.721 0.478704 -10.7596 75.0495 -30.4811 44.8768 64.7945 -37.607 -37.2581 -82.2063 -22.4343 3.96252 -5.88344 -0.206497 3.78069 -129.595 -4.84938 -24.7485 93.6067 6.49805 5.53978 44.7824 -1.44686 -3.76801 -132.169 -4.12735 -1.71715 76.363 -9.89134 -1.81601 45.8324 1.68416 -0.339178 -6.84977 8.68582 -29.1354 11.4616 -12.6 -6.31781 
-38.9214 45.5267 214.609 -8.37162 -2.5174 124.376 -146.75 -0.251714 -11.3619 -51.6289 5.62671 -1.37555 -40.9374 8.80093 -5.71136 -108.885 81.7126 96.4898 -107.689 -32.4505 -139.039 86.6109 -46.9618 -160.844 -65.4044 2.43171 -7.23686 11.8891 0.835511 -6.67285 75.0758 -30.2649 44.4625 63.4656 -39.8829 -38.2711 -80.7943 -23.3087 5.13284 -5.70915 -0.209045 3.50406 -131.2 -2.78672 -24.8843 99.3461 8.64774 3.6254 39.1279 -1.34405 -3.45464 -131.373 -4.81321 -1.34278 76.9428 -12.6372 -1.80665 44.9666 2.11745 0.230176 -6.28058 6.22848 -27.4029 12.0185 -11.4158 -6.02784 
-38.5335 45.2921 214.782 -7.97988 -3.49866 122.728 -146.107 -0.848927 -11.6188 -51.9354 5.69792 -2.06059 -41.6558 10.7856 -5.69947 -115.429 82.3094 103.816 -107.795 -32.6369 -138.946 84.0651 -34.1147 -154.671 -71.0712 -16.4596 -4.40016 20.4508 1.43209 -13.1781 75.1278 -30.1177 44.2954 61.5313 -42.0942 -39.447 -79.1167 -23.877 6.36109 -5.32719 -0.238717 3.2681 -132.234 -0.0316411 -24.6139 103.624 9.20428 2.14179 34.7099 -1.16738 -3.04272 -130.452 -5.66369 -1.0438 78.2208 -14.6987 -1.66794 43.9929 2.36319 0.601659 -5.21699 5.32883 -26.2284 12.6985 -11.059 -5.55095 
-38.131 45.081 214.877 -7.48616 -4.70542 121.399 -145.258 -1.27851 -11.6323 -52.0883 5.82376 -2.68324 -42.463 11.104 -6.04098 -121.678 80.4628 110.324 -107.736 -32.3515 -139.405 82.6171 -25.0188 -155.253 -73.7033 -38.4542 4.77546 25.279 0.492596 -27.2578 75.1962 -29.9908 44.2327 59.5907 -43.8832 -40.4352 -77.4487 -24.6148 7.31757 -5.23703 -0.171935 2.67098 -132.864 2.85684 -24.7497 104.893 8.18245 1.40332 31.0237 -0.89567 -2.44816 -129.511 -6.53295 -1.13384 79.7819 -15.6345 -1.34968 43.2847 2.35248 0.649448 -4.28217 6.03834 -25.4609 13.6372 -11.7698 -4.93385 
-37.655 44.973 214.931 -7.02885 -5.82737 120.451 -144.253 -1.61702 -11.3352 -52.3804 5.92873 -3.30492 -43.3183 10.2988 -6.47777 -125.214 77.2262 113.623 -107.934 -32.3308 -140.05 84.3856 -23.9972 -156.106 -73.7109 -51.3146 12.0108 27.7507 -0.643558 -36.505 75.3206 -29.9022 44.4582 57.373 -45.6223 -41.3214 -76.0883 -24.8176 7.80115 -4.88527 -0.0876977 2.105 -133.349 5.63748 -25.4481 103.132 6.82871 1.34949 29.5867 -0.633528 -1.95977 -128.246 -7.49982 -1.32081 80.7944 -16.1129 -0.93498 42.7738 2.23214 0.551216 -3.94076 8.55651 -25.08 14.8012 -13.6665 -4.09404 
-37.1372 44.9767 214.972 -6.58027 -6.58601 119.958 -143.282 -1.83126 -10.4297 -52.846 6.12024 -4.24804 -44.0422 9.25156 -6.45108 -126.569 74.8756 114.853 -108.395 -32.8382 -140.296 87.4488 -25.7598 -156.098 -73.4449 -58.1396 18.3582 30.2342 -1.51888 -38.6328 75.4057 -29.8278 44.5807 55.2964 -47.1418 -41.6581 -75.0312 -24.668 7.83893 -4.35198 -0.0503093 1.95648 -133.774 7.9446 -26.5014 98.7269 7.05616 1.99547 30.6325 -0.600399 -2.01008 -127.039 -8.41923 -1.16724 81.1975 -16.452 -0.648148 42.8156 2.13741 0.428457 -4.39355 12.9309 -25.1531 16.0103 -16.6588 -2.99863 
